<svg preserveAspectRatio="none" width="100%" height="100%" overflow="visible" style="display: block;" viewBox="0 0 13.1885 9.46074" fill="none" xmlns="http://www.w3.org/2000/svg">
<path id="Wifi" d="M4.68653 7.24785C5.78808 6.31711 7.40145 6.31699 8.50293 7.24785C8.5582 7.2979 8.59026 7.36864 8.5918 7.44316C8.59333 7.5178 8.56408 7.59008 8.51075 7.64238L6.78614 9.38163C6.73567 9.43266 6.66652 9.46063 6.59473 9.46074C6.52297 9.46074 6.45385 9.43252 6.40333 9.38163L4.67774 7.64238C4.62445 7.59005 4.59511 7.5178 4.59668 7.44316C4.59826 7.36852 4.63107 7.29788 4.68653 7.24785ZM2.38477 4.92753C4.75799 2.7219 8.43338 2.72197 10.8066 4.92753C10.8602 4.97922 10.8908 5.05043 10.8916 5.1248C10.8924 5.19923 10.8631 5.27122 10.8106 5.32402L9.81348 6.33085C9.71077 6.43333 9.54479 6.43554 9.43946 6.33574C8.6601 5.63061 7.64613 5.23997 6.59473 5.24003C5.54405 5.24049 4.53078 5.63109 3.75196 6.33574C3.64659 6.43547 3.48061 6.43339 3.37793 6.33085L2.38086 5.32402C2.32827 5.2713 2.29911 5.19924 2.29981 5.1248C2.30058 5.05043 2.33122 4.9792 2.38477 4.92753ZM0.0830125 2.61406C3.72303 -0.871406 9.4654 -0.871298 13.1055 2.61406C13.1582 2.66584 13.188 2.7365 13.1885 2.81035C13.1889 2.88413 13.1604 2.95525 13.1084 3.00761L12.1104 4.01445C12.0075 4.11773 11.8398 4.11904 11.7354 4.01738C10.3485 2.69998 8.50833 1.96473 6.59473 1.96464C4.68098 1.96466 2.84015 2.69991 1.45313 4.01738C1.3488 4.11885 1.1818 4.11761 1.07911 4.01445L0.0800828 3.00761C0.0281695 2.95524 -0.000422613 2.88405 4.72191e-06 2.81035C0.000490551 2.73656 0.0303626 2.66579 0.0830125 2.61406Z" fill="var(--fill-0, white)" fill-opacity="0.9"/>
</svg>
