<svg preserveAspectRatio="none" width="100%" height="100%" overflow="visible" style="display: block;" viewBox="0 0 24 24" fill="none" xmlns="http://www.w3.org/2000/svg">
<g id="Football Clubs">
<g id="Borussia Dortmund">
<path d="M0 11.9994C0 5.37257 5.37285 0 12 0C18.6272 0 24 5.37257 24 11.9994C24 18.6262 18.6272 24 12 24C5.37285 24 0 18.6274 0 11.9994Z" fill="#FFD900"/>
<path d="M0.576958 11.9994C0.576958 5.69067 5.69096 0.576929 12 0.576929C18.309 0.576929 23.423 5.69067 23.423 11.9994C23.423 18.3081 18.309 23.4231 12 23.4231C5.69096 23.4231 0.576958 18.3081 0.576958 11.9994Z" fill="var(--fill-0, black)"/>
<path d="M1.21077 11.9994C1.21077 6.04143 6.04173 1.2107 12 1.2107C17.9583 1.2107 22.7892 6.04143 22.7892 11.9994C22.7892 17.9586 17.9583 22.7893 12 22.7893C6.04173 22.7893 1.21077 17.9586 1.21077 11.9994Z" fill="#FFD900"/>
<path fill-rule="evenodd" clip-rule="evenodd" d="M13.7647 21.1928C12.9676 21.1928 12.3883 20.5892 12.3883 19.901C12.3883 19.8006 12.381 19.7559 12.3858 19.6833H13.137C13.3547 19.6833 13.3196 19.9784 13.3196 19.9784C13.3196 20.2058 13.5652 20.3086 13.7502 20.3135C13.9752 20.3195 14.1591 20.1127 14.1591 19.8853L14.1554 19.445C14.0115 19.5237 13.726 19.5212 13.726 19.5212C13.0451 19.5031 12.3798 18.9153 12.3798 18.1884V17.8642C12.3798 17.1373 12.9991 16.5664 13.726 16.5664H13.7563C14.4832 16.5664 15.0469 17.1543 15.0469 17.8812V19.8659C15.0481 20.6146 14.5183 21.1855 13.7647 21.1928Z" fill="var(--fill-0, black)"/>
<path fill-rule="evenodd" clip-rule="evenodd" d="M13.7357 17.5062H13.749C13.9764 17.5062 14.1603 17.6901 14.1603 17.9175V18.1775C14.1603 18.4049 13.9764 18.5887 13.749 18.5887H13.7357C13.5083 18.5887 13.3245 18.4049 13.3245 18.1775V17.9175C13.3245 17.6901 13.5083 17.5062 13.7357 17.5062Z" fill="#FFD900"/>
<path fill-rule="evenodd" clip-rule="evenodd" d="M5.53372 14.8066V12.7021H6.76021C7.77502 12.7021 8.13789 14.5454 6.81826 14.8066H5.53372ZM5.53372 11.0995V9.09056H6.91987C7.81857 9.09056 8.00363 10.8226 6.9743 11.0995H5.53372ZM3.88025 16.3814L6.70215 16.3838C8.97853 16.3838 10.1349 13.6213 8.55156 11.9184C8.55156 11.9184 8.54672 11.9135 8.54672 11.9051C8.54672 11.8966 8.55761 11.8881 8.55761 11.8881C9.8736 10.4017 9.32204 7.79156 6.87511 7.42267H3.88025V16.3814Z" fill="var(--fill-0, black)"/>
<path fill-rule="evenodd" clip-rule="evenodd" d="M17.1914 14.8066V12.7021H18.4094C19.4243 12.7021 19.7871 14.5454 18.4675 14.8066H17.1914ZM17.1914 11.0995V9.09056H18.5691C19.4678 9.09056 19.6529 10.8226 18.6235 11.0995H17.1914ZM15.5295 16.3814L18.3514 16.3838C20.6278 16.3838 21.7841 13.6213 20.2008 11.9184C20.2008 11.9184 20.1959 11.9135 20.1959 11.9051C20.1959 11.8966 20.2068 11.8881 20.2068 11.8881C21.5228 10.4017 20.9713 7.79156 18.5243 7.42267H15.5295V16.3814Z" fill="var(--fill-0, black)"/>
<path fill-rule="evenodd" clip-rule="evenodd" d="M10.2316 16.5737H10.2619C10.9888 16.5737 11.5767 17.1627 11.5767 17.8896V19.8756C11.5767 20.6025 10.9876 21.1916 10.2619 21.1916H10.2316C9.50469 21.1916 8.91563 20.6025 8.91563 19.8756V17.8896C8.91684 17.1627 9.5059 16.5737 10.2316 16.5737Z" fill="var(--fill-0, black)"/>
<path fill-rule="evenodd" clip-rule="evenodd" d="M10.2401 17.5171H10.2534C10.4808 17.5171 10.6647 17.701 10.6647 17.9283V19.8998C10.6647 20.1272 10.4808 20.311 10.2534 20.311H10.2401C10.0127 20.311 9.82885 20.1272 9.82885 19.8998V17.9283C9.82885 17.701 10.0139 17.5171 10.2401 17.5171Z" fill="#FFD900"/>
<path fill-rule="evenodd" clip-rule="evenodd" d="M8.42334 2.94996L11.3589 12.0308H12.629L15.5295 2.94996H13.7526L11.9915 9.01073L10.2413 2.94996H8.42334Z" fill="var(--fill-0, black)"/>
</g>
</g>
</svg>
