<svg preserveAspectRatio="none" width="100%" height="100%" overflow="visible" style="display: block;" viewBox="0 0 11 18" fill="none" xmlns="http://www.w3.org/2000/svg">
<g id="Serie A">
<path d="M0.0137649 15.8004C0.00262045 15.7892 -0.00793747 15.762 0.00848596 15.7455L0.258357 15.4558C0.269501 15.4393 0.291203 15.4393 0.30704 15.4505C0.453678 15.5709 0.654865 15.68 0.893591 15.68C1.13232 15.68 1.25784 15.5709 1.25784 15.4121C1.25784 15.2811 1.17631 15.1991 0.910015 15.1608L0.790358 15.1443C0.334022 15.0788 0.084151 14.8658 0.084151 14.4722C0.084151 14.0568 0.39385 13.7837 0.877168 13.7837C1.17044 13.7837 1.4473 13.871 1.63792 14.0185C1.65963 14.0297 1.65963 14.0456 1.6432 14.0675L1.44202 14.3678C1.43087 14.3843 1.41504 14.3896 1.39861 14.379C1.23027 14.2645 1.06193 14.2097 0.877168 14.2097C0.681846 14.2097 0.578613 14.3135 0.578613 14.4557C0.578613 14.5867 0.670702 14.6687 0.926438 14.7017L1.04609 14.7183C1.50771 14.7838 1.7523 14.9914 1.7523 15.4015C1.7523 15.8116 1.45375 16.1119 0.872475 16.1119C0.524651 16.1066 0.187971 15.9697 0.0143515 15.8004H0.0137649Z" fill="#1A1659"/>
<path d="M2.01332 13.855C2.01332 13.8332 2.02446 13.822 2.04616 13.822H3.48028C3.50198 13.822 3.51313 13.8332 3.51313 13.855V14.2102C3.51313 14.2321 3.50198 14.2433 3.48028 14.2433H2.51306C2.50191 14.2433 2.49136 14.2486 2.49136 14.2651V14.7129C2.49136 14.7242 2.49663 14.7348 2.51306 14.7348H3.31722C3.33892 14.7348 3.35007 14.746 3.35007 14.7678V15.1177C3.35007 15.1395 3.33892 15.1508 3.31722 15.1508H2.51306C2.50191 15.1508 2.49136 15.1561 2.49136 15.1726V15.6369C2.49136 15.6481 2.49663 15.6588 2.51306 15.6588H3.47442C3.49612 15.6588 3.50726 15.67 3.50726 15.6918V16.047C3.50726 16.0688 3.49612 16.08 3.47442 16.08H2.04558C2.02387 16.08 2.01273 16.0688 2.01273 16.047V13.8556L2.01332 13.855Z" fill="#1A1659"/>
<path d="M5.03875 16.0682C5.01177 16.0682 5.00062 16.057 4.99006 16.0352L4.60411 15.2098H4.30556C4.29441 15.2098 4.28386 15.2151 4.28386 15.2316V16.0346C4.28386 16.0564 4.27271 16.0677 4.25101 16.0677H3.8328C3.8111 16.0677 3.79995 16.0564 3.79995 16.0346V13.8486C3.79995 13.8267 3.8111 13.8155 3.8328 13.8155H4.72377C5.18011 13.8155 5.48453 14.1052 5.48453 14.5147C5.48453 14.8044 5.33261 15.0286 5.08802 15.1378L5.52793 16.0228C5.53907 16.0446 5.52793 16.0612 5.50623 16.0612H5.03933V16.0665L5.03875 16.0682ZM5.00649 14.5218C5.00649 14.3524 4.88683 14.2433 4.70207 14.2433H4.30556C4.29441 14.2433 4.28386 14.2486 4.28386 14.2651V14.7843C4.28386 14.7956 4.28913 14.8062 4.30556 14.8062H4.70207C4.88683 14.8009 5.00649 14.6917 5.00649 14.5218Z" fill="#1A1659"/>
<path d="M5.78895 13.855C5.78895 13.8332 5.80009 13.822 5.82179 13.822H6.24C6.26171 13.822 6.27285 13.8332 6.27285 13.855V16.0411C6.27285 16.0629 6.26171 16.0741 6.24 16.0741H5.82707C5.80537 16.0741 5.79422 16.0629 5.79422 16.0411V13.855H5.78895Z" fill="#1A1659"/>
<path d="M6.63592 13.855C6.63592 13.8332 6.64707 13.822 6.66877 13.822H8.10289C8.12459 13.822 8.13573 13.8332 8.13573 13.855V14.2102C8.13573 14.2321 8.12459 14.2433 8.10289 14.2433H7.14153C7.13039 14.2433 7.11983 14.2486 7.11983 14.2651V14.7129C7.11983 14.7242 7.12511 14.7348 7.14153 14.7348H7.94569C7.9674 14.7348 7.97854 14.746 7.97854 14.7678V15.1177C7.97854 15.1395 7.9674 15.1508 7.94569 15.1508H7.14153C7.13039 15.1508 7.11983 15.1561 7.11983 15.1726V15.6369C7.11983 15.6481 7.12511 15.6588 7.14153 15.6588H8.10289C8.12459 15.6588 8.13573 15.67 8.13573 15.6918V16.047C8.13573 16.0688 8.12459 16.08 8.10289 16.08H6.66877C6.64707 16.08 6.63592 16.0688 6.63592 16.047V13.855Z" fill="#1A1659"/>
<path d="M9.74347 13.855C9.74875 13.8332 9.76517 13.822 9.78688 13.822H10.1998C10.2215 13.822 10.2379 13.8332 10.2432 13.855L10.9981 16.0411C11.0034 16.0629 10.9981 16.0741 10.9764 16.0741H10.547C10.5253 16.0741 10.5089 16.0629 10.5036 16.0411L10.3734 15.6476H9.59097L9.46603 16.0411C9.46075 16.0629 9.44433 16.0741 9.42263 16.0741H8.99327C8.97157 16.0741 8.96629 16.0629 8.97157 16.0411L9.74288 13.855H9.74347ZM10.2432 15.2322L9.98806 14.4451H9.97692L9.72177 15.2322H10.2432Z" fill="#1A1659"/>
<path d="M0.0489549 9.24634H3.38408L5.49743 12.7216L0.0489549 9.24634Z" fill="#1A1659"/>
<path d="M10.9518 9.24634H7.61076L5.49743 12.7216L10.9518 9.24634Z" fill="#1A1659"/>
<path d="M3.38408 9.24634H7.61076L5.49743 3.63399L3.38408 9.24634Z" fill="#1A1659"/>
<path d="M5.49743 12.7216L7.61076 9.24634H3.38408L5.49743 12.7216Z" fill="url(#paint0_linear_4858_43007)"/>
<path d="M5.49743 3.63399L6.4101 6.05487H5.25871L4.47625 8.14239H7.19784L7.61076 9.24634H10.9518L7.00252 0H3.99293L0.0489549 9.24634H3.38995L5.49802 3.63399H5.49743Z" fill="url(#paint1_linear_4858_43007)"/>
<path d="M3.69202 17.174H0.0747652V18H3.69202V17.174Z" fill="#00A346"/>
<path d="M7.30928 17.174H3.69202V18H7.30928V17.174Z" fill="#E2E2E2"/>
<path d="M10.926 17.174H7.3087V18H10.926V17.174Z" fill="var(--fill-0, #DB052B)"/>
</g>
<defs>
<linearGradient id="paint0_linear_4858_43007" x1="0.0225618" y1="8.60253" x2="11.0674" y2="8.60253" gradientUnits="userSpaceOnUse">
<stop stop-color="#31ECFF"/>
<stop offset="0.05" stop-color="#2DE2FF"/>
<stop offset="0.3" stop-color="#1BB2FF"/>
<stop offset="0.51" stop-color="#0E90FF"/>
<stop offset="0.69" stop-color="#067BFF"/>
<stop offset="0.81" stop-color="#0373FF"/>
</linearGradient>
<linearGradient id="paint1_linear_4858_43007" x1="8.68838" y1="0.926522" x2="-2.17435" y2="16.304" gradientUnits="userSpaceOnUse">
<stop stop-color="#31ECFF"/>
<stop offset="0.05" stop-color="#2DE2FF"/>
<stop offset="0.29" stop-color="#1BB2FF"/>
<stop offset="0.51" stop-color="#0E90FF"/>
<stop offset="0.69" stop-color="#067BFF"/>
<stop offset="0.8" stop-color="#0373FF"/>
</linearGradient>
</defs>
</svg>
