<svg preserveAspectRatio="none" width="100%" height="100%" overflow="visible" style="display: block;" viewBox="0 0 12.5 12.5" fill="none" xmlns="http://www.w3.org/2000/svg">
<path id="Vector" d="M10.5 1.66739C9.3848 0.632656 7.89128 0 6.25 0C4.60872 0 3.1152 0.632641 2 1.66739C3.23017 2.80881 4 4.4395 4 6.25C4 8.0605 3.23017 9.69119 2 10.8326C3.1152 11.8673 4.60872 12.5 6.25 12.5C7.89128 12.5 9.3848 11.8674 10.5 10.8326C9.26983 9.69119 8.5 8.0605 8.5 6.25C8.5 4.4395 9.26983 2.80881 10.5 1.66739ZM10.853 2.02202C11.8756 3.13481 12.5 4.6195 12.5 6.25C12.5 7.8805 11.8756 9.36517 10.853 10.478C9.71366 9.42733 9 7.922 9 6.25C9 4.578 9.71364 3.07267 10.853 2.02202ZM1.64705 2.02202C0.624359 3.13481 0 4.6195 0 6.25C0 7.8805 0.624359 9.36517 1.64705 10.478C2.78634 9.42733 3.5 7.922 3.5 6.25C3.5 4.578 2.78636 3.07267 1.64705 2.02202Z" fill="var(--fill-0, white)" fill-opacity="0.8"/>
</svg>
