<svg preserveAspectRatio="none" width="100%" height="100%" overflow="visible" style="display: block;" viewBox="0 0 12 12" fill="none" xmlns="http://www.w3.org/2000/svg">
<path id="Vector" fill-rule="evenodd" clip-rule="evenodd" d="M10.5139 8.86252C10.0437 8.63049 9.19159 8.12705 8.99959 7.93242C9.52713 6.49785 9.39044 5.29063 9.39044 5.29063C10.2599 5.05325 11.1097 4.73665 11.1097 4.73665C11.1097 4.73665 11.6568 5.35016 11.8034 6.96304C11.2463 8.43708 10.5139 8.86252 10.5139 8.86252M7.33223 3.57905C7.33223 3.57905 6.11835 3.87493 4.91103 4.51234C4.91103 4.51234 4.00427 3.64805 3.30733 2.85024C3.72415 1.64301 4.6489 0.936976 4.6489 0.936976C4.6489 0.936976 6.03463 0.758944 7.17998 1.37488C7.42673 2.64867 7.33223 3.57905 7.33223 3.57905M5.73648 10.8315C4.88663 11.0691 3.28444 10.5644 3.22931 10.4227C3.22931 10.4227 2.61684 9.61772 2.46065 8.23265C3.4635 7.85015 4.49598 7.22005 4.49598 7.22005C4.49598 7.22005 5.44361 8.32828 6.50842 8.90222C6.03948 10.6139 5.73648 10.8315 5.73648 10.8315M0.813831 6.51602C0.813831 6.51602 0.514017 6.67127 0.27711 6.85727C0.235391 6.57743 0.212891 6.2913 0.212891 5.99983C0.212891 5.0447 0.445579 4.1447 0.855644 3.35091C1.00705 3.59944 1.19136 3.79726 1.25061 3.85791C1.26308 3.87057 1.26993 3.87713 1.26993 3.87713C1.26993 3.87713 0.81505 4.77648 0.802675 6.09424C0.801456 6.23064 0.804831 6.37108 0.813831 6.51602M6.17712 0.00255853C4.43505 -0.0476917 2.85517 0.645593 1.72895 1.78766H1.72848C1.72501 1.79113 1.72182 1.79479 1.71845 1.79816C1.5932 1.92585 1.47366 2.05907 1.36013 2.19744C1.35141 2.20813 1.34269 2.21882 1.33407 2.2296C1.27876 2.29785 1.22466 2.36704 1.17235 2.43773C1.17226 2.43782 1.17216 2.43791 1.17207 2.4381C1.11947 2.50916 1.06876 2.58182 1.01935 2.65542C1.00932 2.67023 0.999568 2.68523 0.98963 2.70023C0.946786 2.76482 0.905911 2.83082 0.865223 2.89682C0.859504 2.90592 0.853786 2.9151 0.848254 2.92429C0.80991 2.98842 0.77241 3.0531 0.73641 3.11873C0.736504 3.11911 0.736691 3.11948 0.736879 3.11986C0.267751 3.97486 0 4.95586 0 5.99996C0 6.35143 0.0320627 6.69512 0.0901879 7.02991C0.0900942 7.03 0.0900005 7.03009 0.0899067 7.03028C0.0910317 7.03675 0.0925317 7.04322 0.0937505 7.04978C0.107251 7.126 0.121969 7.20175 0.138376 7.27694C0.141469 7.29166 0.144938 7.30619 0.148219 7.32081C0.16472 7.39375 0.182063 7.46641 0.201189 7.53831C0.205407 7.55444 0.210095 7.57038 0.214501 7.58641C0.233907 7.65719 0.25397 7.7276 0.275814 7.79716C0.280501 7.81216 0.285751 7.82688 0.290533 7.84178C0.313502 7.91285 0.336939 7.98354 0.362439 8.05338C0.367783 8.06819 0.376689 8.08113 0.356439 8.11019C0.304783 8.18482 0.361689 8.28729 0.45244 8.28729H0.453377C1.35244 10.4661 3.49642 12 6.00003 12C9.40748 12 12.1516 9.15945 11.9935 5.71712C11.8505 2.60282 9.29339 0.0923715 6.17712 0.00255853" fill="var(--fill-0, white)"/>
</svg>
